<svg xmlns="http://www.w3.org/2000/svg" width="1100" height="520" viewBox="0 0 1100 520">
  <rect width="100%" height="100%" fill="#ffffff"/>
  <text x="56" y="34" font-family="Arial, sans-serif" font-size="24" fill="#111827">Before / After KPI impact</text>
  <text x="56" y="58" font-family="Arial, sans-serif" font-size="12" fill="#4b5563">historical telemetry versus forecast horizon</text>

  <rect x="56" y="66" width="420" height="300" rx="12" fill="#f9fafb" stroke="#e5e7eb"/>
  <rect x="596" y="66" width="420" height="300" rx="12" fill="#f9fafb" stroke="#e5e7eb"/>
  <text x="72" y="92" font-family="Arial, sans-serif" font-size="14" fill="#111827">Before: actual history</text>
  <text x="612" y="92" font-family="Arial, sans-serif" font-size="14" fill="#111827">After: forecast horizon</text>

  <polyline points="56.0,66.0 74.3,253.4 92.5,290.0 110.8,307.9 129.0,322.3 147.3,323.2 165.6,325.7 183.8,326.0 202.1,319.6 220.3,313.1 238.6,296.3 256.9,280.2 275.1,249.9 293.4,216.9 311.7,183.9 329.9,152.7 348.2,98.6 366.4,104.4 384.7,134.4 403.0,183.2 421.2,227.6 439.5,269.3 457.7,271.4 476.0,300.6" fill="none" stroke="#111827" stroke-width="2"/>
  <polyline points="596.0,66.0 614.3,92.8 632.5,124.0 650.8,141.4 669.0,166.0 687.3,172.9 705.6,193.3 723.8,190.9 742.1,210.8 760.3,199.6 778.6,222.8 796.9,202.0 815.1,232.6 833.4,199.6 851.7,242.3 869.9,192.8 888.2,254.2 906.4,181.2 924.7,270.3 943.0,163.2 961.2,293.1 979.5,136.4 997.7,326.0 1016.0,97.1" fill="none" stroke="#dc2626" stroke-width="2" stroke-dasharray="6,4"/>

  <line x1="56" y1="356" x2="476" y2="356" stroke="#d1d5db" stroke-width="1"/>
  <line x1="596" y1="356" x2="1016" y2="356" stroke="#d1d5db" stroke-width="1"/>

  <rect x="56" y="394" width="300" height="82" rx="12" fill="#111827"/>
  <text x="74" y="426" font-family="Arial, sans-serif" font-size="13" fill="#cbd5e1">Before average</text>
  <text x="74" y="452" font-family="Arial, sans-serif" font-size="26" fill="#ffffff">6215.60</text>

  <rect x="376" y="394" width="300" height="82" rx="12" fill="#1d4ed8"/>
  <text x="394" y="426" font-family="Arial, sans-serif" font-size="13" fill="#dbeafe">After average</text>
  <text x="394" y="452" font-family="Arial, sans-serif" font-size="26" fill="#ffffff">-3109.29</text>

  <rect x="696" y="394" width="380" height="82" rx="12" fill="#f3f4f6" stroke="#e5e7eb"/>
  <text x="714" y="426" font-family="Arial, sans-serif" font-size="13" fill="#111827">Impact</text>
  <text x="714" y="452" font-family="Arial, sans-serif" font-size="26" fill="#111827">-9324.89 (-150.0%)</text>
  <text x="714" y="476" font-family="Arial, sans-serif" font-size="11" fill="#6b7280">peak before 31133.27 | peak after 168.33</text>
</svg>
