<svg xmlns="http://www.w3.org/2000/svg" width="880" height="464" viewBox="0 0 880 464">
  <rect width="100%" height="100%" fill="#ffffff"/>
  <text x="60" y="34" font-family="Arial, sans-serif" font-size="22" fill="#111827">Model feature importance</text>
  <text x="60" y="58" font-family="Arial, sans-serif" font-size="12" fill="#4b5563">feature importance scores (sorted by magnitude)</text>
  <text x="60" y="76" font-family="Arial, sans-serif" font-size="12" fill="#111827">internet_traffic_lag_12</text><rect x="230" y="60" width="0.8" height="22" rx="4" fill="#2563eb" /><text x="238.8" y="76" font-family="Arial, sans-serif" font-size="11" fill="#4b5563">0.0011</text><text x="60" y="108" font-family="Arial, sans-serif" font-size="12" fill="#111827">dayofmonth</text><rect x="230" y="92" width="1.0" height="22" rx="4" fill="#2563eb" /><text x="239.0" y="108" font-family="Arial, sans-serif" font-size="11" fill="#4b5563">0.0013</text><text x="60" y="140" font-family="Arial, sans-serif" font-size="12" fill="#111827">internet_traffic_lag_6</text><rect x="230" y="124" width="1.2" height="22" rx="4" fill="#2563eb" /><text x="239.2" y="140" font-family="Arial, sans-serif" font-size="11" fill="#4b5563">0.0017</text><text x="60" y="172" font-family="Arial, sans-serif" font-size="12" fill="#111827">dayofweek</text><rect x="230" y="156" width="2.5" height="22" rx="4" fill="#2563eb" /><text x="240.5" y="172" font-family="Arial, sans-serif" font-size="11" fill="#4b5563">0.0034</text><text x="60" y="204" font-family="Arial, sans-serif" font-size="12" fill="#111827">internet_traffic_lag_3</text><rect x="230" y="188" width="2.9" height="22" rx="4" fill="#2563eb" /><text x="240.9" y="204" font-family="Arial, sans-serif" font-size="11" fill="#4b5563">0.0040</text><text x="60" y="236" font-family="Arial, sans-serif" font-size="12" fill="#111827">dow_sin</text><rect x="230" y="220" width="3.8" height="22" rx="4" fill="#2563eb" /><text x="241.8" y="236" font-family="Arial, sans-serif" font-size="11" fill="#4b5563">0.0053</text><text x="60" y="268" font-family="Arial, sans-serif" font-size="12" fill="#111827">internet_traffic_lag_2</text><rect x="230" y="252" width="6.3" height="22" rx="4" fill="#2563eb" /><text x="244.3" y="268" font-family="Arial, sans-serif" font-size="11" fill="#4b5563">0.0087</text><text x="60" y="300" font-family="Arial, sans-serif" font-size="12" fill="#111827">hour_sin</text><rect x="230" y="284" width="8.3" height="22" rx="4" fill="#2563eb" /><text x="246.3" y="300" font-family="Arial, sans-serif" font-size="11" fill="#4b5563">0.0114</text><text x="60" y="332" font-family="Arial, sans-serif" font-size="12" fill="#111827">internet_traffic_lag_24</text><rect x="230" y="316" width="17.1" height="22" rx="4" fill="#2563eb" /><text x="255.1" y="332" font-family="Arial, sans-serif" font-size="11" fill="#4b5563">0.0234</text><text x="60" y="364" font-family="Arial, sans-serif" font-size="12" fill="#111827">hour_cos</text><rect x="230" y="348" width="28.2" height="22" rx="4" fill="#2563eb" /><text x="266.2" y="364" font-family="Arial, sans-serif" font-size="11" fill="#4b5563">0.0386</text><text x="60" y="396" font-family="Arial, sans-serif" font-size="12" fill="#111827">hour</text><rect x="230" y="380" width="78.8" height="22" rx="4" fill="#2563eb" /><text x="316.8" y="396" font-family="Arial, sans-serif" font-size="11" fill="#4b5563">0.1077</text><text x="60" y="428" font-family="Arial, sans-serif" font-size="12" fill="#111827">internet_traffic_lag_1</text><rect x="230" y="412" width="580.0" height="22" rx="4" fill="#2563eb" /><text x="818.0" y="428" font-family="Arial, sans-serif" font-size="11" fill="#4b5563">0.7930</text>
</svg>
