<svg xmlns="http://www.w3.org/2000/svg" width="1100" height="520" viewBox="0 0 1100 520">
  <rect width="100%" height="100%" fill="#ffffff"/>
  <text x="56" y="34" font-family="Arial, sans-serif" font-size="24" fill="#111827">Before / After KPI impact</text>
  <text x="56" y="58" font-family="Arial, sans-serif" font-size="12" fill="#4b5563">historical telemetry versus forecast horizon</text>

  <rect x="56" y="66" width="420" height="300" rx="12" fill="#f9fafb" stroke="#e5e7eb"/>
  <rect x="596" y="66" width="420" height="300" rx="12" fill="#f9fafb" stroke="#e5e7eb"/>
  <text x="72" y="92" font-family="Arial, sans-serif" font-size="14" fill="#111827">Before: actual history</text>
  <text x="612" y="92" font-family="Arial, sans-serif" font-size="14" fill="#111827">After: forecast horizon</text>

  <polyline points="56.0,141.6 74.3,147.8 92.5,109.5 110.8,157.5 129.0,166.3 147.3,226.9 165.6,173.3 183.8,326.0 202.1,205.9 220.3,124.9 238.6,194.0 256.9,219.3 275.1,213.7 293.4,200.2 311.7,199.4 329.9,91.9 348.2,127.5 366.4,122.9 384.7,117.5 403.0,66.0 421.2,90.9 439.5,120.9 457.7,115.1 476.0,127.7" fill="none" stroke="#111827" stroke-width="2"/>
  <polyline points="596.0,326.0 614.3,66.0 632.5,266.3 650.8,237.4 669.0,173.1 687.3,219.8 705.6,200.4 723.8,194.0 742.1,205.0 760.3,198.8 778.6,199.5 796.9,201.4 815.1,199.8 833.4,200.3 851.7,200.5 869.9,200.2 888.2,200.4 906.4,200.4 924.7,200.3 943.0,200.4 961.2,200.3 979.5,200.3 997.7,200.3 1016.0,200.3" fill="none" stroke="#dc2626" stroke-width="2" stroke-dasharray="6,4"/>

  <line x1="56" y1="356" x2="476" y2="356" stroke="#d1d5db" stroke-width="1"/>
  <line x1="596" y1="356" x2="1016" y2="356" stroke="#d1d5db" stroke-width="1"/>

  <rect x="56" y="394" width="300" height="82" rx="12" fill="#111827"/>
  <text x="74" y="426" font-family="Arial, sans-serif" font-size="13" fill="#cbd5e1">Before average</text>
  <text x="74" y="452" font-family="Arial, sans-serif" font-size="26" fill="#ffffff">59.82</text>

  <rect x="376" y="394" width="300" height="82" rx="12" fill="#1d4ed8"/>
  <text x="394" y="426" font-family="Arial, sans-serif" font-size="13" fill="#dbeafe">After average</text>
  <text x="394" y="452" font-family="Arial, sans-serif" font-size="26" fill="#ffffff">61.80</text>

  <rect x="696" y="394" width="380" height="82" rx="12" fill="#f3f4f6" stroke="#e5e7eb"/>
  <text x="714" y="426" font-family="Arial, sans-serif" font-size="13" fill="#111827">Impact</text>
  <text x="714" y="452" font-family="Arial, sans-serif" font-size="26" fill="#111827">+1.98 (+3.3%)</text>
  <text x="714" y="476" font-family="Arial, sans-serif" font-size="11" fill="#6b7280">peak before 66.48 | peak after 61.91</text>
</svg>
