<svg xmlns="http://www.w3.org/2000/svg" width="880" height="464" viewBox="0 0 880 464">
  <rect width="100%" height="100%" fill="#ffffff"/>
  <text x="60" y="34" font-family="Arial, sans-serif" font-size="22" fill="#111827">Model feature importance</text>
  <text x="60" y="58" font-family="Arial, sans-serif" font-size="12" fill="#4b5563">absolute coefficients from the linear baseline</text>
  <text x="60" y="76" font-family="Arial, sans-serif" font-size="12" fill="#111827">throughput_ul_mbps</text><rect x="230" y="60" width="81.5" height="22" rx="4" fill="#2563eb" /><text x="319.5" y="76" font-family="Arial, sans-serif" font-size="11" fill="#4b5563">0.7856</text><text x="60" y="108" font-family="Arial, sans-serif" font-size="12" fill="#111827">prb_dl_util_lag_3</text><rect x="230" y="92" width="90.5" height="22" rx="4" fill="#2563eb" /><text x="328.5" y="108" font-family="Arial, sans-serif" font-size="11" fill="#4b5563">0.8722</text><text x="60" y="140" font-family="Arial, sans-serif" font-size="12" fill="#111827">prb_dl_util_lag_1</text><rect x="230" y="124" width="101.2" height="22" rx="4" fill="#2563eb" /><text x="339.2" y="140" font-family="Arial, sans-serif" font-size="11" fill="#4b5563">0.9748</text><text x="60" y="172" font-family="Arial, sans-serif" font-size="12" fill="#111827">prb_dl_util_lag_2</text><rect x="230" y="156" width="130.4" height="22" rx="4" fill="#2563eb" /><text x="368.4" y="172" font-family="Arial, sans-serif" font-size="11" fill="#4b5563">1.2567</text><text x="60" y="204" font-family="Arial, sans-serif" font-size="12" fill="#111827">rrc_users</text><rect x="230" y="188" width="157.8" height="22" rx="4" fill="#2563eb" /><text x="395.8" y="204" font-family="Arial, sans-serif" font-size="11" fill="#4b5563">1.5209</text><text x="60" y="236" font-family="Arial, sans-serif" font-size="12" fill="#111827">throughput_dl_mbps</text><rect x="230" y="220" width="168.7" height="22" rx="4" fill="#2563eb" /><text x="406.7" y="236" font-family="Arial, sans-serif" font-size="11" fill="#4b5563">1.6256</text><text x="60" y="268" font-family="Arial, sans-serif" font-size="12" fill="#111827">packet_loss_pct</text><rect x="230" y="252" width="198.6" height="22" rx="4" fill="#2563eb" /><text x="436.6" y="268" font-family="Arial, sans-serif" font-size="11" fill="#4b5563">1.9137</text><text x="60" y="300" font-family="Arial, sans-serif" font-size="12" fill="#111827">dow_cos</text><rect x="230" y="284" width="199.9" height="22" rx="4" fill="#2563eb" /><text x="437.9" y="300" font-family="Arial, sans-serif" font-size="11" fill="#4b5563">1.9263</text><text x="60" y="332" font-family="Arial, sans-serif" font-size="12" fill="#111827">latency_ms</text><rect x="230" y="316" width="258.0" height="22" rx="4" fill="#2563eb" /><text x="496.0" y="332" font-family="Arial, sans-serif" font-size="11" fill="#4b5563">2.4859</text><text x="60" y="364" font-family="Arial, sans-serif" font-size="12" fill="#111827">prb_ul_util</text><rect x="230" y="348" width="280.7" height="22" rx="4" fill="#2563eb" /><text x="518.7" y="364" font-family="Arial, sans-serif" font-size="11" fill="#4b5563">2.7048</text><text x="60" y="396" font-family="Arial, sans-serif" font-size="12" fill="#111827">hour_sin</text><rect x="230" y="380" width="479.9" height="22" rx="4" fill="#2563eb" /><text x="717.9" y="396" font-family="Arial, sans-serif" font-size="11" fill="#4b5563">4.6248</text><text x="60" y="428" font-family="Arial, sans-serif" font-size="12" fill="#111827">hour_cos</text><rect x="230" y="412" width="580.0" height="22" rx="4" fill="#2563eb" /><text x="818.0" y="428" font-family="Arial, sans-serif" font-size="11" fill="#4b5563">5.5895</text>
</svg>
