<svg xmlns="http://www.w3.org/2000/svg" width="880" height="464" viewBox="0 0 880 464">
  <rect width="100%" height="100%" fill="#ffffff"/>
  <text x="60" y="34" font-family="Arial, sans-serif" font-size="22" fill="#111827">Model feature importance</text>
  <text x="60" y="58" font-family="Arial, sans-serif" font-size="12" fill="#4b5563">absolute coefficients from the linear baseline</text>
  <text x="60" y="76" font-family="Arial, sans-serif" font-size="12" fill="#111827">prb_dl_util_lag_3</text><rect x="230" y="60" width="99.7" height="22" rx="4" fill="#2563eb" /><text x="337.7" y="76" font-family="Arial, sans-serif" font-size="11" fill="#4b5563">0.9000</text><text x="60" y="108" font-family="Arial, sans-serif" font-size="12" fill="#111827">prb_dl_util_lag_6</text><rect x="230" y="92" width="103.9" height="22" rx="4" fill="#2563eb" /><text x="341.9" y="108" font-family="Arial, sans-serif" font-size="11" fill="#4b5563">0.9372</text><text x="60" y="140" font-family="Arial, sans-serif" font-size="12" fill="#111827">prb_dl_util_lag_2</text><rect x="230" y="124" width="156.5" height="22" rx="4" fill="#2563eb" /><text x="394.5" y="140" font-family="Arial, sans-serif" font-size="11" fill="#4b5563">1.4126</text><text x="60" y="172" font-family="Arial, sans-serif" font-size="12" fill="#111827">sinr_db</text><rect x="230" y="156" width="162.9" height="22" rx="4" fill="#2563eb" /><text x="400.9" y="172" font-family="Arial, sans-serif" font-size="11" fill="#4b5563">1.4702</text><text x="60" y="204" font-family="Arial, sans-serif" font-size="12" fill="#111827">rrc_users</text><rect x="230" y="188" width="192.8" height="22" rx="4" fill="#2563eb" /><text x="430.8" y="204" font-family="Arial, sans-serif" font-size="11" fill="#4b5563">1.7394</text><text x="60" y="236" font-family="Arial, sans-serif" font-size="12" fill="#111827">throughput_dl_mbps</text><rect x="230" y="220" width="203.9" height="22" rx="4" fill="#2563eb" /><text x="441.9" y="236" font-family="Arial, sans-serif" font-size="11" fill="#4b5563">1.8402</text><text x="60" y="268" font-family="Arial, sans-serif" font-size="12" fill="#111827">dow_cos</text><rect x="230" y="252" width="214.9" height="22" rx="4" fill="#2563eb" /><text x="452.9" y="268" font-family="Arial, sans-serif" font-size="11" fill="#4b5563">1.9393</text><text x="60" y="300" font-family="Arial, sans-serif" font-size="12" fill="#111827">prb_dl_util_lag_1</text><rect x="230" y="284" width="232.6" height="22" rx="4" fill="#2563eb" /><text x="470.6" y="300" font-family="Arial, sans-serif" font-size="11" fill="#4b5563">2.0987</text><text x="60" y="332" font-family="Arial, sans-serif" font-size="12" fill="#111827">hour_cos</text><rect x="230" y="316" width="365.5" height="22" rx="4" fill="#2563eb" /><text x="603.5" y="332" font-family="Arial, sans-serif" font-size="11" fill="#4b5563">3.2978</text><text x="60" y="364" font-family="Arial, sans-serif" font-size="12" fill="#111827">packet_loss_pct</text><rect x="230" y="348" width="449.2" height="22" rx="4" fill="#2563eb" /><text x="687.2" y="364" font-family="Arial, sans-serif" font-size="11" fill="#4b5563">4.0534</text><text x="60" y="396" font-family="Arial, sans-serif" font-size="12" fill="#111827">hour_sin</text><rect x="230" y="380" width="551.3" height="22" rx="4" fill="#2563eb" /><text x="789.3" y="396" font-family="Arial, sans-serif" font-size="11" fill="#4b5563">4.9748</text><text x="60" y="428" font-family="Arial, sans-serif" font-size="12" fill="#111827">prb_ul_util</text><rect x="230" y="412" width="580.0" height="22" rx="4" fill="#2563eb" /><text x="818.0" y="428" font-family="Arial, sans-serif" font-size="11" fill="#4b5563">5.2338</text>
</svg>
